<svg width="0" height="0" class="hidden">
  <symbol xmlns="http://www.w3.org/2000/svg" fill="none" viewBox="0 0 64 64" id="icon-avatar-placeholder">
    <path fill="#9393B7" d="M0 32C0 14.327 14.327 0 32 0c17.673 0 32 14.327 32 32 0 17.673-14.327 32-32 32C14.327 64 0 49.673 0 32Z"></path>
    <g fill="#fff" clip-path="url(#a)">
      <ellipse cx="32" cy="62.4" rx="25.6" ry="19.2"></ellipse>
      <circle cx="32" cy="25.6" r="12.8" opacity=".9"></circle>
    </g>
    <defs>
      <clipPath id="a">
        <rect width="64" height="64" fill="#fff" rx="32"></rect>
      </clipPath>
    </defs>
  </symbol>
  <symbol xmlns="http://www.w3.org/2000/svg" fill="none" viewBox="0 0 243 251" id="icon-bg-pattern-averages">
    <circle cx="110.5" cy="110.5" r="110.5" fill="#fff" opacity=".2"></circle>
    <circle cx="132.5" cy="140.5" r="110.5" fill="#fff" opacity=".2"></circle>
  </symbol>
  <symbol xmlns="http://www.w3.org/2000/svg" fill="none" viewBox="0 0 10 8" id="icon-check">
    <path fill="#fff" d="M3.541 6.86.623 3.94a.467.467 0 0 1 0-.65l.633-.633a.446.446 0 0 1 .633 0l1.986 1.969L8.094.408a.446.446 0 0 1 .633 0l.632.633a.467.467 0 0 1 0 .65L4.191 6.86a.467.467 0 0 1-.65 0Z"></path>
  </symbol>
  <symbol xmlns="http://www.w3.org/2000/svg" fill="none" viewBox="0 0 11 6" id="icon-dropdown-arrow">
    <path fill="#21214D" d="M5.727 5.86 1.102 1.265C.945 1.14.945.89 1.102.734l.625-.593a.36.36 0 0 1 .53 0l3.75 3.687L9.728.141c.156-.157.406-.157.53 0l.626.593c.156.157.156.407 0 .532L6.258 5.859a.36.36 0 0 1-.531 0Z"></path>
  </symbol>
  <symbol xmlns="http://www.w3.org/2000/svg" fill="none" viewBox="0 0 154 155" id="icon-happy-color">
    <circle cx="76.665" cy="77.665" r="76.665" fill="#89E780"></circle>
    <path fill="#21214D" d="M61.344 59.385c0 7.747-5.47 14.027-12.217 14.027-6.747 0-12.216-6.28-12.216-14.027 0-7.746 5.469-14.025 12.216-14.025 6.748 0 12.217 6.279 12.217 14.025ZM116.423 59.385c0 7.747-5.47 14.027-12.216 14.027-6.747 0-12.216-6.28-12.216-14.027 0-7.746 5.47-14.025 12.216-14.025 6.746 0 12.216 6.279 12.216 14.025Z"></path>
    <path fill="#fff" d="M51.21 55.224a4.435 4.435 0 1 1-8.871-.001 4.435 4.435 0 0 1 8.87.001ZM106.29 55.224a4.436 4.436 0 0 1-8.87 0 4.434 4.434 0 1 1 8.87 0Z"></path>
    <path fill="#21214D" d="m109.872 106.008-.073-.072c-2.299-1.991-6.099-1.431-9.012.597a37.802 37.802 0 0 1-12.543 5.755c-3.584 1.087-7.493 1.684-11.584 1.684-4.108 0-8.017-.597-11.618-1.701a37.863 37.863 0 0 1-12.488-5.738c-2.915-2.028-6.715-2.588-9.014-.597l-.09.072c-2.28 1.936-1.666 6.497 1.954 9.611 7.959 6.83 17.715 10.861 27.895 11.954 1.11.066 2.23.111 3.368.111 1.14 0 2.263-.045 3.376-.111 10.179-1.094 19.933-5.124 27.875-11.954 3.637-3.114 4.253-7.675 1.954-9.611Z"></path>
  </symbol>
  <symbol xmlns="http://www.w3.org/2000/svg" fill="none" viewBox="0 0 31 31" id="icon-happy-white">
    <circle cx="15.6" cy="15.065" r="15" fill="#fff"></circle>
    <path fill="#21214D" d="M12.602 11.488c0 1.516-1.07 2.745-2.39 2.745s-2.39-1.229-2.39-2.745c0-1.515 1.07-2.744 2.39-2.744s2.39 1.229 2.39 2.744ZM23.378 11.488c0 1.516-1.07 2.745-2.39 2.745s-2.39-1.229-2.39-2.745c0-1.515 1.07-2.744 2.39-2.744s2.39 1.229 2.39 2.744Z"></path>
    <path fill="#fff" d="M10.62 10.674a.868.868 0 1 1-1.736 0 .868.868 0 0 1 1.736 0ZM21.396 10.674a.868.868 0 1 1-1.736 0 .868.868 0 0 1 1.736 0Z"></path>
    <path fill="#21214D" d="m22.097 20.61-.015-.014c-.45-.39-1.193-.28-1.763.117a7.397 7.397 0 0 1-2.454 1.126 7.822 7.822 0 0 1-2.266.33 7.753 7.753 0 0 1-2.273-.333 7.408 7.408 0 0 1-2.444-1.123c-.57-.397-1.313-.506-1.763-.117l-.018.014c-.446.38-.326 1.271.383 1.88a9.994 9.994 0 0 0 5.457 2.34c.217.012.437.021.66.021.222 0 .442-.009.66-.021a9.975 9.975 0 0 0 5.453-2.34c.712-.608.833-1.5.383-1.88Z"></path>
  </symbol>
  <symbol xmlns="http://www.w3.org/2000/svg" fill="none" viewBox="0 0 16 16" id="icon-logout">
    <path fill="#21214D" d="M3.001 2h2.627c.187 0 .375.188.375.375v.75a.38.38 0 0 1-.375.375H3a1.5 1.5 0 0 0-1.5 1.5v6c0 .844.656 1.5 1.5 1.5h2.627c.187 0 .375.188.375.375v.75a.38.38 0 0 1-.375.375H3A3.001 3.001 0 0 1 0 11V5c0-1.656 1.344-3 3.001-3Zm7.223.625c.125-.156.375-.156.531 0l5.128 5.125a.36.36 0 0 1 0 .531l-5.128 5.125c-.156.156-.406.156-.531 0l-.626-.625c-.156-.125-.156-.375 0-.531l3.533-3.438H5.378a.361.361 0 0 1-.376-.374v-.876a.38.38 0 0 1 .376-.375h7.753L9.598 3.781c-.156-.156-.156-.406 0-.531l.626-.625Z"></path>
  </symbol>
  <symbol xmlns="http://www.w3.org/2000/svg" fill="none" viewBox="0 0 154 155" id="icon-neutral-color">
    <circle cx="76.665" cy="77.665" r="76.665" fill="#89CAFF"></circle>
    <path fill="#21214D" d="m55.294 127.25.074.039c2.318 1.015 5.634-.028 7.962-1.952 3.12-2.605 6.66-4.669 10.42-6.192 3.051-1.374 6.46-2.46 10.11-3.154 3.665-.699 7.234-.942 10.596-.775 4.04.037 8.074.658 11.914 1.925 2.872.937 6.339.685 8.123-1.109l.071-.067c1.774-1.753.613-4.866-3.035-6.448-8.02-3.467-17.267-4.651-26.497-3.693-1 .142-2.006.3-3.02.493a65.624 65.624 0 0 0-2.999.652c-8.934 2.502-17.097 7.002-23.265 13.169-2.828 2.815-2.766 6.137-.454 7.112ZM61.344 63.307c0 7.747-5.47 14.026-12.216 14.026-6.748 0-12.217-6.28-12.217-14.026 0-7.747 5.469-14.027 12.217-14.027 6.747 0 12.216 6.28 12.216 14.027ZM116.424 63.307c0 7.747-5.469 14.026-12.217 14.026-6.747 0-12.216-6.28-12.216-14.026 0-7.747 5.469-14.027 12.216-14.027 6.748 0 12.217 6.28 12.217 14.027Z"></path>
    <path fill="#fff" d="M51.21 59.144a4.435 4.435 0 1 1-8.87 0 4.435 4.435 0 0 1 8.87 0ZM106.29 59.144a4.435 4.435 0 1 1-8.87-.001 4.435 4.435 0 0 1 8.87.001Z"></path>
  </symbol>
  <symbol xmlns="http://www.w3.org/2000/svg" fill="none" viewBox="0 0 31 31" id="icon-neutral-white">
    <circle cx="15.8" cy="15.065" r="15" fill="#fff"></circle>
    <path fill="#21214D" d="m11.618 24.766.015.008c.454.198 1.102-.006 1.558-.382a7.66 7.66 0 0 1 2.038-1.211 8.863 8.863 0 0 1 1.978-.618 8.78 8.78 0 0 1 2.073-.151c.79.007 1.58.129 2.332.376.562.184 1.24.135 1.589-.216l.014-.014c.347-.343.12-.952-.594-1.261-1.57-.678-3.378-.91-5.184-.723-.196.028-.393.059-.591.097-.2.038-.394.081-.587.127-1.748.49-3.345 1.37-4.552 2.577-.553.55-.54 1.2-.089 1.391ZM12.802 12.256c0 1.515-1.07 2.744-2.39 2.744s-2.39-1.229-2.39-2.744c0-1.516 1.07-2.745 2.39-2.745s2.39 1.229 2.39 2.745ZM23.578 12.256c0 1.515-1.07 2.744-2.39 2.744s-2.39-1.229-2.39-2.744c0-1.516 1.07-2.745 2.39-2.745s2.39 1.229 2.39 2.745Z"></path>
    <path fill="#fff" d="M10.82 11.441a.868.868 0 1 1-1.736 0 .868.868 0 0 1 1.735 0ZM21.596 11.441a.868.868 0 1 1-1.736 0 .868.868 0 0 1 1.736 0Z"></path>
  </symbol>
  <symbol xmlns="http://www.w3.org/2000/svg" fill="none" viewBox="0 0 16 16" id="icon-quote">
    <path fill="#4865DB" d="M14.5 8c.813 0 1.5.688 1.5 1.5v4a1.5 1.5 0 0 1-1.5 1.5h-4A1.48 1.48 0 0 1 9 13.5V6c0-2.75 2.219-5 5-5h.25a.76.76 0 0 1 .75.75v1.5a.74.74 0 0 1-.75.75H14c-1.125 0-2 .906-2 2v2h2.5Zm-9 0C6.313 8 7 8.688 7 9.5v4A1.5 1.5 0 0 1 5.5 15h-4A1.48 1.48 0 0 1 0 13.5V6c0-2.75 2.219-5 5-5h.25a.76.76 0 0 1 .75.75v1.5a.74.74 0 0 1-.75.75H5c-1.125 0-2 .906-2 2v2h2.5Z"></path>
  </symbol>
  <symbol xmlns="http://www.w3.org/2000/svg" fill="none" viewBox="0 0 16 16" id="icon-reflection">
    <path fill="#57577B" d="M8.103 2.684a.172.172 0 0 1-.094-.156c0-.094.032-.156.094-.187l1.56-.656.656-1.56A.21.21 0 0 1 10.506 0c.062 0 .125.062.156.125l.655 1.56 1.56.656c.063.03.094.093.094.187a.172.172 0 0 1-.093.156l-1.56.655-.656 1.56c-.031.063-.094.125-.156.125a.21.21 0 0 1-.187-.124l-.656-1.56-1.56-.656Zm3.277 5.68c.593.062.811.811.405 1.217l-2.371 2.31.561 3.276v.094a.706.706 0 0 1-.717.718c-.094 0-.25-.032-.344-.063l-2.933-1.56-2.903 1.56c-.53.28-1.154-.187-1.06-.749l.561-3.277L.207 9.58C-.198 9.176.02 8.427.613 8.365l3.277-.5L5.357 4.9c.25-.53 1.03-.53 1.28 0l1.466 2.964 3.277.5Zm4.525-1.498c.031.031.094.093.094.125 0 .062-.063.124-.094.156l-1.248.53-.53 1.248a.237.237 0 0 1-.126.063.238.238 0 0 1-.156-.063l-.53-1.248-1.249-.53a.238.238 0 0 1-.062-.156c0-.032.031-.094.062-.125l1.249-.53.53-1.25a.238.238 0 0 1 .156-.062c.031 0 .094.032.125.063l.53 1.248 1.249.53Z"></path>
  </symbol>
  <symbol xmlns="http://www.w3.org/2000/svg" fill="none" viewBox="0 0 154 155" id="icon-sad-color">
    <circle cx="76.665" cy="77.665" r="76.665" fill="#B8B1FF"></circle>
    <path fill="#21214D" d="M76.666 127.449h15.128c4.768 0 7.007-4.301 3.442-6.612l-.312-.202c-10.415-6.748-26.1-6.748-36.514 0l-.313.202c-3.566 2.311-1.325 6.612 3.443 6.612h15.126ZM54.473 83.954c1.227-.551 2.432-1.166 3.53-1.942 3.59-2.539 5.862-6.843 5.933-11.237.01-.607-.023-1.231-.272-1.785-.611-1.352-2.391-1.86-3.816-1.446-1.424.413-2.54 1.519-3.462 2.681-.922 1.162-1.733 2.435-2.862 3.398-.983.837-2.166 1.405-3.362 1.893-3.542 1.444-7.782 2.212-11.054.228-.668-.405-1.268-.91-1.874-1.405-1.525-1.25-3.157-2.472-5.07-2.946-1.915-.473-4.188-.017-5.344 1.579-.96 1.325-.96 3.176-.328 4.687.629 1.509 1.804 2.728 3.06 3.774 4.134 3.436 9.532 5.374 14.9 5.134 3.47-.155 6.854-1.187 10.02-2.612ZM98.861 83.954c-1.227-.551-2.432-1.166-3.53-1.942-3.59-2.539-5.862-6.843-5.933-11.237-.01-.607.023-1.231.272-1.785.61-1.352 2.39-1.86 3.815-1.446 1.425.413 2.54 1.519 3.463 2.681.922 1.162 1.733 2.435 2.862 3.398.983.837 2.166 1.405 3.362 1.893 3.542 1.444 7.782 2.212 11.054.228.668-.405 1.268-.91 1.874-1.405 1.525-1.25 3.157-2.472 5.07-2.946 1.915-.473 4.188-.017 5.344 1.579.96 1.325.959 3.176.328 4.687-.629 1.509-1.804 2.728-3.061 3.774-4.133 3.436-9.531 5.374-14.9 5.134-3.469-.155-6.853-1.187-10.02-2.612Z"></path>
    <path fill="#21214D" d="M44.193 46.93c5.079-3.629 9.137-5.882 12.1-4.015 2.963 1.866 3.017 8.264-1.343 10.586-4.36 2.323-16.788 9.65-34.137 5.08-2.66-.514.87-6.797 8.135-6.669 7.265.13 13.434-3.723 15.245-4.983ZM109.141 46.93c-5.078-3.629-9.137-5.882-12.1-4.015-2.962 1.866-3.017 8.264 1.343 10.586 4.36 2.323 16.788 9.65 34.137 5.08 2.66-.514-.869-6.797-8.134-6.669-7.266.13-13.435-3.723-15.246-4.983Z" opacity=".3"></path>
  </symbol>
  <symbol xmlns="http://www.w3.org/2000/svg" fill="none" viewBox="0 0 30 31" id="icon-sad-white">
    <circle cx="15" cy="15.065" r="15" fill="#fff"></circle>
    <path fill="#21214D" d="M15 24.805h2.96c.933 0 1.37-.841.673-1.293l-.061-.04c-2.038-1.32-5.106-1.32-7.144 0l-.061.04c-.698.452-.26 1.293.673 1.293H15ZM10.658 16.295c.24-.108.476-.228.69-.38a2.793 2.793 0 0 0 1.161-2.198.81.81 0 0 0-.053-.35c-.12-.264-.468-.363-.747-.283-.278.081-.496.298-.677.525-.18.227-.34.476-.56.665a2.388 2.388 0 0 1-.658.37c-.693.283-1.522.433-2.163.045-.13-.08-.248-.178-.366-.275-.299-.245-.618-.484-.992-.576-.375-.093-.82-.004-1.046.309-.188.259-.187.62-.064.916.123.296.353.534.599.739.809.672 1.865 1.051 2.915 1.004.679-.03 1.341-.232 1.96-.51ZM19.343 16.295a4.115 4.115 0 0 1-.691-.38 2.793 2.793 0 0 1-1.16-2.198.81.81 0 0 1 .052-.35c.12-.264.468-.363.747-.283.279.081.497.298.677.525.18.227.34.476.56.665.193.164.424.275.658.37.693.283 1.523.433 2.163.045.13-.08.248-.178.366-.275.299-.245.618-.484.992-.576.375-.093.82-.004 1.046.309.188.259.188.62.064.916-.123.296-.353.534-.599.739-.808.672-1.865 1.051-2.915 1.004-.679-.03-1.34-.232-1.96-.51Z"></path>
    <path fill="#21214D" d="M8.647 9.051c.993-.71 1.787-1.15 2.367-.785.58.365.59 1.617-.263 2.071-.853.454-3.284 1.888-6.679.994-.52-.1.17-1.33 1.592-1.305 1.421.025 2.628-.728 2.983-.975ZM21.354 9.051c-.994-.71-1.788-1.15-2.368-.785-.58.365-.59 1.617.263 2.071.853.454 3.285 1.888 6.68.994.52-.1-.171-1.33-1.592-1.305-1.422.025-2.63-.728-2.983-.975Z" opacity=".3"></path>
  </symbol>
  <symbol xmlns="http://www.w3.org/2000/svg" fill="none" viewBox="0 0 16 16" id="icon-settings">
    <path fill="#21214D" d="M14.345 7.37c.032.42.032.84 0 1.227l1.033.614c.291.161.453.517.356.872-.356 1.356-1.098 2.583-2.067 3.584-.258.226-.646.29-.936.13l-1.034-.614a5.728 5.728 0 0 1-1.065.613v1.195a.758.758 0 0 1-.582.743 8.024 8.024 0 0 1-4.1 0c-.323-.065-.582-.42-.582-.743v-1.195a5.73 5.73 0 0 1-1.065-.613l-1.034.613c-.29.162-.678.097-.936-.129-.969-1.001-1.711-2.228-2.067-3.584a.765.765 0 0 1 .356-.872l1.033-.614c-.032-.161-.032-.42-.032-.613 0-.162 0-.42.032-.614L.622 6.79a.765.765 0 0 1-.356-.873c.356-1.356 1.098-2.583 2.067-3.584.258-.226.646-.29.936-.13l1.034.614a5.73 5.73 0 0 1 1.065-.613V1.009c0-.355.226-.646.582-.743a8.024 8.024 0 0 1 4.1 0c.323.065.582.42.582.743v1.195c.323.129.807.42 1.065.613l1.034-.613c.29-.162.678-.097.936.129.969 1.001 1.711 2.228 2.067 3.584a.765.765 0 0 1-.356.872l-1.033.581Zm-1.711 2.067c.258-1.356.258-1.518 0-2.874l1.42-.807c-.193-.581-.71-1.421-1.097-1.873l-1.421.807c-1.001-.872-1.163-.969-2.454-1.42V1.622c-.29-.033-.775-.097-1.066-.097-.323 0-.807.064-1.098.097v1.646c-1.291.452-1.42.55-2.454 1.421l-1.42-.807c-.485.549-.84 1.195-1.098 1.873l1.42.807c-.258 1.356-.258 1.518 0 2.874l-1.42.807c.193.581.71 1.421 1.097 1.873l1.421-.807c1.001.872 1.163.968 2.454 1.42v1.647c.29.033.775.097 1.098.097.29 0 .775-.064 1.066-.097v-1.646c1.291-.453 1.42-.55 2.454-1.421l1.42.807c.388-.452.905-1.292 1.099-1.873l-1.421-.807ZM8.016 4.884c1.68 0 3.1 1.42 3.1 3.1 0 1.711-1.42 3.1-3.1 3.1a3.1 3.1 0 0 1-3.1-3.1c0-1.68 1.389-3.1 3.1-3.1Zm0 4.65c.84 0 1.55-.678 1.55-1.55 0-.84-.71-1.55-1.55-1.55-.872 0-1.55.71-1.55 1.55 0 .872.678 1.55 1.55 1.55Z"></path>
  </symbol>
  <symbol xmlns="http://www.w3.org/2000/svg" fill="none" viewBox="0 0 16 16" id="icon-sleep">
    <path fill="#21214D" d="M10 .906c-.031.219-.125.531-.25.688L7.156 4.5H9c.25 0 .5.25.5.5v.5c0 .281-.25.5-.5.5H5.5a.494.494 0 0 1-.5-.5v-.406c0-.188.094-.5.219-.657L7.812 1.5H6a.494.494 0 0 1-.5-.5V.5c0-.25.219-.5.5-.5h3.5c.25 0 .5.25.5.5v.406ZM7.25 8a.76.76 0 0 1 .75.75v.813c-.031.218-.156.53-.313.687L3.876 14H7.5c.25 0 .5.25.5.5v1c0 .281-.25.5-.5.5H1.75a.722.722 0 0 1-.75-.75v-.781c0-.219.125-.531.281-.688L5.094 10H2a.494.494 0 0 1-.5-.5v-1c0-.25.219-.5.5-.5h5.25Zm7.25-1c.25 0 .5.25.5.5v.406c-.031.219-.125.532-.25.688L12.156 11.5H14c.25 0 .5.25.5.5v.5c0 .281-.25.5-.5.5h-3.5a.494.494 0 0 1-.5-.5v-.406c0-.188.094-.5.219-.656L12.813 8.5H11a.494.494 0 0 1-.5-.5v-.5c0-.25.219-.5.5-.5h3.5Z"></path>
  </symbol>
  <symbol xmlns="http://www.w3.org/2000/svg" fill="none" viewBox="0 0 16 16" id="icon-trend-decrease">
    <path fill="#21214D" d="M12.64 3.415c.19-.021.36.149.36.36v8.871c0 .212-.149.36-.36.36H3.77c-.213 0-.383-.17-.362-.36l-.02-.828c0-.212.169-.382.36-.36l6.6-.022L3.11 4.2a.347.347 0 0 1 0-.509l.595-.594a.365.365 0 0 1 .509 0l7.236 7.236V3.755c-.021-.191.149-.361.36-.361l.828.021Z"></path>
  </symbol>
  <symbol xmlns="http://www.w3.org/2000/svg" fill="none" viewBox="0 0 16 16" id="icon-trend-increase">
    <path fill="#21214D" d="M3.415 3.36c-.021-.19.149-.36.36-.36h8.871c.212 0 .36.149.36.36v8.87c0 .213-.17.383-.36.361l-.828.022c-.212 0-.382-.17-.36-.361l-.022-6.6L4.2 12.89a.347.347 0 0 1-.509 0l-.594-.595a.365.365 0 0 1 0-.509l7.236-7.236H3.755c-.191.021-.361-.148-.361-.36l.021-.828Z"></path>
  </symbol>
  <symbol xmlns="http://www.w3.org/2000/svg" fill="none" viewBox="0 0 15 16" id="icon-trend-same">
    <path fill="#21214D" d="M7.539 1.478c.12-.15.36-.15.51 0L14.32 7.75c.15.15.15.36 0 .51l-6.272 6.272c-.15.15-.39.15-.51 0l-.6-.57c-.15-.15-.15-.39 0-.51l4.65-4.682H1.357c-.21 0-.36-.15-.36-.36v-.84c0-.18.15-.36.36-.36H11.59L6.938 2.557c-.15-.12-.15-.36 0-.51l.6-.57Z"></path>
  </symbol>
  <symbol xmlns="http://www.w3.org/2000/svg" fill="none" viewBox="0 0 154 154" id="icon-very-happy-color">
    <circle cx="76.665" cy="76.665" r="76.665" fill="#FFC97C"></circle>
    <path fill="#21214D" d="M61.343 59.386c0 7.747-5.47 14.027-12.216 14.027-6.747 0-12.217-6.28-12.217-14.027 0-7.747 5.47-14.027 12.217-14.027 6.747 0 12.216 6.28 12.216 14.027ZM116.423 59.386c0 7.747-5.469 14.027-12.216 14.027-6.748 0-12.217-6.28-12.217-14.027 0-7.747 5.47-14.027 12.217-14.027 6.747 0 12.216 6.28 12.216 14.027Z"></path>
    <path fill="#fff" d="M51.208 55.223a4.434 4.434 0 1 1-8.868.001 4.434 4.434 0 0 1 8.868 0ZM106.288 55.223a4.435 4.435 0 1 1-8.87 0 4.435 4.435 0 0 1 8.87 0Z"></path>
    <path fill="#21214D" stroke="#21214D" d="M123.229 103.506c2.947-3.978 3.025-7.682 2.078-10.474l-.003-.009a8.96 8.96 0 0 0-.465-1.154l-.002-.004c-.647-1.384-1.535-2.486-2.37-3.2-.419-.358-.812-.608-1.143-.751-.314-.136-.519-.154-.627-.135-7.684 3.54-16.723 5.057-24.806 5.693-6.545.514-12.496.452-16.614.41-.98-.01-1.855-.02-2.61-.02-.756 0-1.631.01-2.61.02-4.12.042-10.07.104-16.615-.41-8.084-.636-17.123-2.152-24.807-5.693-.107-.018-.311-.001-.625.135-.331.143-.725.393-1.143.75-.835.715-1.723 1.817-2.37 3.2l-.002.005a9.11 9.11 0 0 0-.467 1.155l-.002.008c-.947 2.792-.869 6.496 2.077 10.474.39.528.794 1.083 1.215 1.66 3.247 4.461 7.484 10.281 13.87 15.215 7.199 5.56 17.14 10.001 31.479 10.001 14.338 0 24.28-4.441 31.478-10.001 6.388-4.935 10.624-10.755 13.871-15.217.42-.577.823-1.131 1.213-1.658Z"></path>
    <path fill="#fff" d="M40.51 103.333c9.623 6.161 22.285 9.899 36.154 9.899 9.58 0 18.583-1.783 26.404-4.916 4.837-1.937 9.222-4.39 13.012-7.256a46.607 46.607 0 0 0 3.481-2.906 42.285 42.285 0 0 0 3.661-3.817l.121-.141.058-.072c.19-.23.378-.461.563-.694l.056-.07.031-.04c.431-.548.844-1.104 1.238-1.667-.767-1.641-1.861-2.912-2.852-3.652a4.794 4.794 0 0 0-.863-.528l-.001.001a2.95 2.95 0 0 0-.291-.11 2.099 2.099 0 0 0-.417-.091l-.002.003.002-.005c-.127 0-.233 0-.339.032v.002c-13.755 6.36-32.013 6.17-41.233 6.075-.985-.01-1.866-.02-2.628-.02-.764 0-1.647.01-2.633.02-4.175.043-10.198.106-16.816-.428-8.006-.647-16.884-2.167-24.416-5.648a.93.93 0 0 0-.278-.03l-.058-.001-.001-.002a2.245 2.245 0 0 0-.709.201l.003.006-.003-.005c-1.165.53-2.71 2.043-3.716 4.182.2.286.412.571.623.857l.001-.002v.003c.211.286.423.561.646.847l.198.248c.157.196.316.395.48.588.114.136.229.268.343.4l.001.001c.118.137.236.274.354.414a43.126 43.126 0 0 0 3.082 3.145 47.232 47.232 0 0 0 3.295 2.758l.191.146a53.478 53.478 0 0 0 3.257 2.273Z"></path>
  </symbol>
  <symbol xmlns="http://www.w3.org/2000/svg" fill="none" viewBox="0 0 30 30" id="icon-very-happy-white">
    <circle cx="15.003" cy="15" r="15" fill="#fff"></circle>
    <path fill="#21214D" d="M12.006 11.62c0 1.515-1.07 2.744-2.39 2.744s-2.39-1.23-2.39-2.745c0-1.515 1.07-2.744 2.39-2.744s2.39 1.229 2.39 2.744ZM22.782 11.62c0 1.515-1.07 2.744-2.39 2.744s-2.39-1.23-2.39-2.745c0-1.515 1.07-2.744 2.39-2.744s2.39 1.229 2.39 2.744Z"></path>
    <path fill="#fff" d="M10.023 10.805a.868.868 0 1 1-1.735 0 .868.868 0 0 1 1.735 0ZM20.8 10.805a.868.868 0 1 1-1.736 0 .868.868 0 0 1 1.735 0Z"></path>
    <path fill="#21214D" stroke="#21214D" stroke-width=".196" d="M24.114 20.252c.577-.779.592-1.503.406-2.05v-.001a1.732 1.732 0 0 0-.091-.226v-.001c-.127-.27-.3-.486-.464-.626a.922.922 0 0 0-.224-.147.235.235 0 0 0-.122-.027c-1.504.693-3.272.99-4.854 1.114-1.28.1-2.445.089-3.25.08a51.457 51.457 0 0 0-1.022 0c-.806.009-1.97.02-3.25-.08-1.582-.124-3.35-.42-4.854-1.114-.021-.003-.061 0-.123.027a.922.922 0 0 0-.223.147c-.164.14-.337.355-.464.626a1.785 1.785 0 0 0-.092.227v.001c-.185.547-.17 1.271.406 2.05.077.103.156.211.238.325.635.872 1.464 2.01 2.714 2.976 1.408 1.088 3.353 1.957 6.159 1.957 2.805 0 4.75-.869 6.159-1.957 1.25-.965 2.078-2.104 2.714-2.977.082-.113.16-.221.237-.324Z"></path>
    <path fill="#fff" d="M7.93 20.218c1.882 1.205 4.36 1.936 7.073 1.936 1.875 0 3.636-.348 5.166-.961a10.99 10.99 0 0 0 2.546-1.42c.24-.181.467-.371.681-.569a8.282 8.282 0 0 0 .717-.746l.023-.028.012-.014.11-.136.01-.014.007-.007c.084-.108.165-.216.242-.326a1.928 1.928 0 0 0-.558-.715.936.936 0 0 0-.169-.103.618.618 0 0 0-.101-.034.223.223 0 0 0-.104 0c-2.691 1.245-6.263 1.208-8.067 1.19-.193-.003-.366-.005-.515-.005-.149 0-.322.002-.515.004-.817.009-1.995.021-3.29-.083-1.566-.127-3.303-.424-4.777-1.106a.182.182 0 0 0-.054-.005h-.012a.441.441 0 0 0-.139.038l.001.002v-.001c-.228.103-.531.4-.728.818a8.88 8.88 0 0 0 .248.334c.014.015.027.032.04.048l.093.115.068.078.069.082a8.448 8.448 0 0 0 1.285 1.183 9.586 9.586 0 0 0 .637.445Z"></path>
  </symbol>
  <symbol xmlns="http://www.w3.org/2000/svg" fill="none" viewBox="0 0 154 155" id="icon-very-sad-color">
    <circle cx="76.665" cy="77.665" r="76.665" fill="#FF9B99"></circle>
    <path fill="#21214D" d="M54.515 72.594c1.226-.552 2.43-1.167 3.529-1.943 3.59-2.537 5.863-6.843 5.933-11.237.01-.607-.024-1.231-.273-1.784-.61-1.352-2.39-1.86-3.815-1.447-1.425.413-2.54 1.519-3.462 2.681-.922 1.163-1.732 2.435-2.862 3.398-.982.837-2.165 1.405-3.361 1.893-3.543 1.444-7.783 2.212-11.055.228-.668-.404-1.269-.91-1.873-1.405-1.527-1.25-3.157-2.472-5.072-2.946-1.913-.473-4.187-.017-5.344 1.579-.96 1.325-.959 3.176-.328 4.687.63 1.509 1.804 2.729 3.063 3.774 4.132 3.436 9.53 5.374 14.898 5.134 3.47-.155 6.855-1.187 10.022-2.612ZM98.901 72.594c-1.226-.552-2.43-1.167-3.53-1.943-3.588-2.537-5.862-6.843-5.932-11.237-.01-.607.024-1.231.273-1.784.61-1.352 2.39-1.86 3.815-1.447 1.425.413 2.54 1.519 3.462 2.681.922 1.163 1.734 2.435 2.862 3.398.982.837 2.165 1.405 3.361 1.893 3.543 1.444 7.783 2.212 11.055.228.668-.404 1.269-.91 1.873-1.405 1.527-1.25 3.157-2.472 5.072-2.946 1.913-.473 4.187-.017 5.344 1.579.96 1.325.959 3.176.328 4.687-.631 1.509-1.804 2.729-3.063 3.774-4.132 3.436-9.53 5.374-14.898 5.134-3.47-.155-6.855-1.187-10.022-2.612Z"></path>
    <path fill="#21214D" d="M44.233 35.568c5.08-3.628 9.139-5.881 12.102-4.014 2.961 1.866 3.017 8.264-1.343 10.586-4.361 2.323-16.79 9.65-34.137 5.08-2.66-.514.869-6.797 8.133-6.669 7.265.13 13.435-3.723 15.245-4.983ZM109.183 35.568c-5.08-3.628-9.139-5.881-12.1-4.014-2.963 1.866-3.019 8.264 1.341 10.586 4.361 2.323 16.789 9.65 34.137 5.08 2.66-.514-.869-6.797-8.133-6.669-7.265.13-13.435-3.723-15.245-4.983Z" opacity=".3"></path>
    <path fill="#21214D" d="M111.34 120.458c-2.444 4.181-11.51 4.597-14.225.814-5.811-7.185-15.566-5.846-20.416-5.846-4.832 0-14.588-1.339-20.398 5.846-2.714 3.783-11.781 3.367-14.225-.814-1.647-2.86-5.176-7.33.743-16.235l.036-.055a53.327 53.327 0 0 1 2.986-3.365c8.488-8.85 19.203-14.136 30.858-14.136 11.656 0 22.388 5.285 30.877 14.136a53.431 53.431 0 0 1 2.985 3.365l.036.055c5.919 8.905 2.39 13.375.743 16.235Z"></path>
    <path fill="#fff" d="M47.65 107.698c2.1 3.313 8.598 1.502 11.313 0 6.93-4.235 14.622-3.746 17.898-3.746s10.662-.489 17.592 3.746c2.715 1.502 9.214 3.313 11.312 0 .562-.89 1.132-1.986 1.492-3.247.278-.968.84-3.113.071-3.904a53.155 53.155 0 0 0-2.957-2.821 49.784 49.784 0 0 0-3.116-2.536c-7.25-5.424-15.632-8.523-24.556-8.523-8.923 0-17.295 3.097-24.539 8.523a49.57 49.57 0 0 0-3.115 2.534 53.944 53.944 0 0 0-2.958 2.823c-.768.791-.206 2.936.07 3.904.362 1.261.932 2.357 1.494 3.247Z"></path>
    <path fill="#fff" d="M47.65 107.698c2.1 3.313 8.598 1.502 11.313 0 6.93-4.235 14.622-3.746 17.898-3.746s10.662-.489 17.592 3.746c2.715 1.502 9.214 3.313 11.312 0 .562-.89 1.132-1.986 1.492-3.247.278-.968.84-3.113.071-3.904a53.155 53.155 0 0 0-2.957-2.821 49.784 49.784 0 0 0-3.116-2.536c-7.25-5.424-15.632-8.523-24.556-8.523-8.923 0-17.295 3.097-24.539 8.523a49.57 49.57 0 0 0-3.115 2.534 53.944 53.944 0 0 0-2.958 2.823c-.768.791-.206 2.936.07 3.904.362 1.261.932 2.357 1.494 3.247Z"></path>
    <path fill="#fff" d="M47.65 107.696c2.01 3.179 8.08 1.64 10.961.183-.041-.354-.09-.718-.131-1.097-2.94 1.458-9.133 3.188-11.25.215.14.247.28.477.42.699Z"></path>
    <path fill="#fff" d="M47.23 106.997c2.117 2.973 8.31 1.243 11.25-.215a42.54 42.54 0 0 1-.132-1.17c-3.039 1.466-9.19 3.13-11.52.602.131.272.262.528.402.783Z"></path>
    <path fill="#fff" d="M46.827 106.214c2.33 2.528 8.482.864 11.521-.602a44.773 44.773 0 0 1-.106-1.243c-3.146 1.474-9.232 3.073-11.777.998.106.296.23.575.362.847Z"></path>
    <path fill="#fff" d="M46.465 105.367c2.544 2.075 8.63.476 11.776-.998a33.887 33.887 0 0 1-.074-1.308c-3.195 1.474-9.364 3.26-12.016 1.39.091.313.198.619.314.916ZM58.611 107.879c.124-.058.24-.118.347-.183-.025-.362-.049-.74-.082-1.128-.115.067-.273.148-.396.214.041.379.09.743.131 1.097Z"></path>
    <path fill="#fff" d="M58.48 106.782c.124-.065.28-.148.395-.214-.024-.387-.05-.782-.065-1.194-.157.075-.306.156-.462.238.041.404.083.792.132 1.17Z"></path>
    <path fill="#fff" d="M58.348 105.612c.156-.082.305-.163.462-.238a29.624 29.624 0 0 1-.05-1.275c-.181.09-.337.171-.518.27.033.429.065.84.106 1.243Z"></path>
    <path fill="#fff" d="M58.242 104.369c.18-.099.337-.18.518-.27-.016-.428-.015-.882-.015-1.335-.198.098-.389.198-.578.297.016.444.041.88.075 1.308ZM58.958 107.696c6.926-4.225 14.6-3.746 17.886-3.746v-1.006c-3.409 0-11.092-.46-17.968 3.624.033.388.057.766.082 1.128Z"></path>
    <path fill="#fff" d="M58.876 106.568c6.876-4.084 14.56-3.624 17.968-3.624 0-.345-.014-.699-.014-1.07-3.672 0-11.249-.288-18.026 3.5.016.412.04.807.065 1.194h.007Z"></path>
    <path fill="#fff" d="M58.808 105.375c6.778-3.789 14.354-3.5 18.027-3.5v-1.154c-3.945 0-11.406-.097-18.076 3.378.013.436.024.864.05 1.276Z"></path>
    <path fill="#fff" d="M58.76 104.099c6.67-3.475 14.131-3.378 18.076-3.378 0-.396 0-.798-.013-1.21-4.06 0-11.455-.083-18.085 3.253 0 .453 0 .906.017 1.334l.005.001ZM76.844 103.95h.016v-1.006h-.016v1.006Z"></path>
    <path fill="#fff" d="M76.844 102.944h.016v-1.07l-.025.001c0 .37.014.724.014 1.069h-.005ZM76.835 101.875l.025-.001v-1.153h-.025v1.154Z"></path>
    <path fill="#fff" d="M76.836 100.721h.025v-1.21h-.033c.013.412.013.814.013 1.21h-.005ZM76.86 103.95c3.278 0 10.657-.487 17.59 3.746.075-.337.149-.682.223-1.053-6.901-4.134-14.395-3.699-17.813-3.699v1.006Z"></path>
    <path fill="#fff" d="M76.86 102.944c3.418 0 10.912-.435 17.813 3.699.075-.362.148-.734.214-1.121-6.843-3.936-14.304-3.648-18.027-3.648v1.07Z"></path>
    <path fill="#fff" d="M76.86 101.874c3.723 0 11.184-.288 18.027 3.648.075-.387.14-.79.198-1.193-6.786-3.731-14.198-3.6-18.225-3.608v1.153Z"></path>
    <path fill="#fff" d="M76.86 100.721c4.027.013 11.44-.123 18.225 3.608.057-.412.115-.832.156-1.269-6.753-3.631-14.213-3.54-18.38-3.55v1.211ZM94.45 107.696c2.718 1.507 9.216 3.311 11.316 0 .14-.222.281-.452.412-.699-2.182 3.08-8.713 1.145-11.505-.354-.074.371-.148.716-.222 1.053Z"></path>
    <path fill="#fff" d="M94.673 106.643c2.792 1.499 9.323 3.434 11.505.354.14-.255.28-.511.403-.783-2.372 2.594-8.738.799-11.694-.692-.066.387-.14.759-.214 1.121Z"></path>
    <path fill="#fff" d="M94.888 105.523c2.956 1.491 9.321 3.285 11.693.691.132-.272.256-.551.371-.847-2.561 2.092-8.746.436-11.867-1.038-.057.403-.124.807-.197 1.194Z"></path>
    <path fill="#fff" d="M95.085 104.329c3.121 1.474 9.306 3.13 11.867 1.038.107-.297.215-.603.305-.916-2.651 1.87-8.82.092-12.016-1.391-.041.437-.099.857-.156 1.269ZM46.152 104.451c2.586 1.82 8.524.174 11.777-1.284-.124-1.441-.412-4.068.098-5.345-3.5 1.45-8.918 3.345-11.94 2.727-.766.79-.206 2.931.065 3.902Z"></path>
    <path fill="#fff" d="M57.928 103.167c.083-.033.165-.065.239-.106-.09-1.458-.354-4.101.181-5.386-.107.05-.215.097-.322.147-.51 1.277-.222 3.904-.098 5.345Z"></path>
    <path fill="#fff" d="M58.167 103.061c6.761-3.632 14.453-3.55 18.645-3.55-.014-1.367-.013-3.912-.016-5.098-4.884 0-11.942.255-18.447 3.26-.536 1.285-.273 3.93-.182 5.388ZM76.812 99.51h.016c.013-1.366.025-3.91.025-5.097h-.057c.013 1.186.013 3.73.016 5.098Z"></path>
    <path fill="#fff" d="M76.828 99.51h.033c.014-1.366.013-3.91 0-5.097h-.014c0 1.186-.016 3.73-.026 5.098h.007Z"></path>
    <path fill="#fff" d="M76.861 99.51c4.167.014 11.627-.082 18.38 3.55.198-1.408.569-3.993.14-5.229-6.563-3.137-13.588-3.41-18.52-3.418.013 1.186.014 3.73 0 5.098Z"></path>
    <path fill="#fff" d="M95.241 103.06c3.195 1.483 9.365 3.261 12.016 1.391.272-.972.84-3.112.066-3.902-3.015.617-8.442-1.277-11.942-2.718.428 1.236.058 3.821-.14 5.229ZM46.085 100.549c3.022.618 8.441-1.278 11.941-2.727a110.915 110.915 0 0 1 1.622-4.183c-3.508 1.441-6.926 3.13-10.607 4.084a52.926 52.926 0 0 0-2.956 2.826Z"></path>
    <path fill="#fff" d="M58.027 97.822a30.603 30.603 0 0 1 3.583-1.424c.305-1.334.634-2.626.964-3.862-.989.33-1.96.708-2.924 1.103-.56 1.35-1.096 2.75-1.623 4.183Z"></path>
    <path fill="#fff" d="M61.61 96.398c5.518-1.803 11.11-1.985 15.186-1.985 0-1.383-.014-2.726-.014-4.02-4.8-.012-9.652.586-14.214 2.143-.33 1.235-.659 2.528-.963 3.862h.005Z"></path>
    <path fill="#fff" d="M76.794 94.413h.058c-.014-1.383-.026-2.726-.034-4.02h-.033c0 1.294.013 2.637.013 4.02h-.004ZM76.853 94.413h.013c0-1.383-.014-2.726-.016-4.02h-.026c.014 1.294.026 2.637.034 4.02h-.005Z"></path>
    <path fill="#fff" d="M76.86 94.413c4.01.014 9.414.18 14.825 1.943-.305-1.334-.61-2.618-.94-3.853-4.463-1.515-9.206-2.093-13.9-2.11.013 1.294.015 2.637.015 4.02Z"></path>
    <path fill="#fff" d="M91.685 96.356c1.235.404 2.47.89 3.696 1.475a100.966 100.966 0 0 0-1.613-4.183 49.46 49.46 0 0 0-3.022-1.145c.33 1.235.634 2.519.939 3.853Z"></path>
    <path fill="#fff" d="M95.381 97.831c3.5 1.441 8.927 3.335 11.942 2.718a53.376 53.376 0 0 0-2.956-2.826c-3.682-.947-7.099-2.642-10.599-4.075a100.966 100.966 0 0 1 1.613 4.183ZM49.043 97.723c4.702-1.218 8.96-3.63 13.53-5.187.107-.32.215-.635.322-.948-4.505 1.54-8.549 4.019-13.086 5.477-.256.214-.51.436-.766.658Z"></path>
    <path fill="#fff" d="M49.809 97.065c4.537-1.458 8.58-3.937 13.086-5.477.106-.313.213-.617.32-.922-4.356 1.499-8.465 3.78-12.632 5.757-.264.206-.52.42-.774.642Z"></path>
    <path fill="#fff" d="M50.583 96.423c4.167-1.977 8.276-4.258 12.633-5.757.106-.313.213-.61.328-.906-4.216 1.466-8.375 3.541-12.18 6.036-.263.206-.526.412-.781.627Z"></path>
    <path fill="#fff" d="M51.365 95.796c3.804-2.495 7.963-4.57 12.18-6.036.106-.305.213-.602.328-.89-4.142 1.45-8.07 3.59-11.718 6.317-.264.197-.527.404-.79.61ZM62.572 92.536c4.57-1.556 9.437-2.15 14.246-2.142a59.417 59.417 0 0 1-.032-.954c-4.752-.013-9.406.608-13.894 2.148-.106.313-.213.627-.32.948Z"></path>
    <path fill="#fff" d="M62.895 91.588c4.488-1.54 9.14-2.157 13.892-2.149-.014-.32-.016-.635-.033-.948-4.62 0-9.207.676-13.539 2.175-.107.305-.214.61-.32.922Z"></path>
    <path fill="#fff" d="M63.215 90.666c4.332-1.499 8.919-2.175 13.539-2.175-.014-.305-.016-.617-.025-.921-4.496 0-9.026.732-13.185 2.19-.115.296-.222.593-.328.906Z"></path>
    <path fill="#fff" d="M63.544 89.76c4.159-1.458 8.689-2.19 13.185-2.19a50.808 50.808 0 0 1-.033-.907c-4.44 0-8.73.766-12.823 2.207a21.46 21.46 0 0 0-.329.89ZM76.82 90.394v-.954h-.033c.013.312.024.633.032.954ZM76.787 89.44h.032c-.013-.322-.013-.636-.013-.949h-.057c.016.313.025.627.033.948h.005Z"></path>
    <path fill="#fff" d="M76.754 88.491h.056v-.921h-.082c.013.304.016.617.026.921ZM76.73 87.57h.08v-.907h-.114c.013.305.025.602.033.907ZM76.82 90.394c4.71.016 9.454.594 13.926 2.11-.099-.322-.207-.636-.314-.949-4.406-1.49-8.96-2.107-13.613-2.115v.954Z"></path>
    <path fill="#fff" d="M76.82 89.44c4.652.013 9.206.625 13.612 2.115-.107-.304-.213-.617-.32-.922-4.258-1.457-8.763-2.125-13.3-2.142 0 .313 0 .627.013.948h-.006Z"></path>
    <path fill="#fff" d="M76.811 88.491c4.538.017 9.043.685 13.3 2.142-.106-.304-.214-.601-.321-.906-4.11-1.425-8.556-2.141-12.979-2.157v.921Z"></path>
    <path fill="#fff" d="M76.811 87.57c4.423.016 8.87.732 12.979 2.157-.115-.296-.222-.593-.337-.882a38.701 38.701 0 0 0-12.642-2.182v.907ZM90.746 92.503c4.603 1.556 8.894 4.001 13.621 5.22-.256-.222-.511-.444-.766-.658-4.563-1.458-8.631-3.961-13.169-5.51.107.313.215.627.314.948Z"></path>
    <path fill="#fff" d="M90.432 91.555c4.538 1.549 8.606 4.052 13.169 5.51-.256-.214-.511-.436-.775-.642-4.2-1.985-8.325-4.283-12.714-5.79.107.305.213.618.32.922Z"></path>
    <path fill="#fff" d="M90.112 90.633c4.389 1.507 8.514 3.805 12.714 5.79-.255-.214-.518-.42-.781-.626-3.83-2.504-8.022-4.596-12.255-6.07.107.305.215.602.322.906Z"></path>
    <path fill="#fff" d="M89.79 89.727c4.233 1.474 8.425 3.566 12.255 6.07a55.808 55.808 0 0 0-.792-.61c-3.665-2.742-7.625-4.892-11.8-6.341.115.288.222.585.337.881Z"></path>
  </symbol>
  <symbol xmlns="http://www.w3.org/2000/svg" fill="none" viewBox="0 0 31 31" id="icon-very-sad-white">
    <circle cx="15.2" cy="15.065" r="15" fill="#fff"></circle>
    <path fill="#21214D" d="M10.866 14.073c.24-.108.476-.229.69-.38a2.793 2.793 0 0 0 1.161-2.2.815.815 0 0 0-.053-.348c-.12-.265-.468-.364-.746-.283-.28.08-.497.297-.678.524-.18.228-.339.477-.56.665a2.39 2.39 0 0 1-.657.37c-.694.283-1.523.433-2.163.045-.131-.079-.249-.178-.367-.275-.299-.244-.618-.483-.992-.576-.375-.093-.82-.003-1.046.309-.188.26-.187.621-.064.917.123.295.353.534.6.738.808.673 1.864 1.052 2.914 1.005.679-.03 1.341-.232 1.96-.511ZM19.55 14.073a4.112 4.112 0 0 1-.69-.38 2.793 2.793 0 0 1-1.161-2.2.815.815 0 0 1 .053-.348c.12-.265.468-.364.747-.283.279.08.497.297.677.524.18.228.34.477.56.665.192.164.424.275.658.37.693.283 1.523.433 2.163.045.13-.079.248-.178.366-.275.299-.244.618-.483.993-.576.374-.093.819-.003 1.045.309.188.26.188.621.064.917-.123.295-.353.534-.599.738-.808.673-1.865 1.052-2.915 1.005-.679-.03-1.341-.232-1.96-.511Z"></path>
    <path fill="#21214D" d="M8.854 6.829c.994-.71 1.788-1.151 2.368-.786.58.365.59 1.617-.263 2.071-.853.455-3.285 1.888-6.679.994-.52-.1.17-1.33 1.592-1.305 1.421.026 2.628-.728 2.982-.974ZM21.562 6.829c-.994-.71-1.788-1.151-2.367-.786-.58.365-.59 1.617.262 2.071.854.455 3.285 1.888 6.68.994.52-.1-.17-1.33-1.592-1.305-1.421.026-2.629-.728-2.983-.974Z" opacity=".3"></path>
    <path fill="#21214D" d="M21.984 23.437c-.478.819-2.252.9-2.783.16-1.137-1.406-3.046-1.144-3.995-1.144-.945 0-2.854-.262-3.99 1.144-.531.74-2.305.659-2.784-.16-.322-.56-1.012-1.434.146-3.176l.007-.01c.187-.23.382-.45.584-.66 1.66-1.73 3.757-2.765 6.037-2.765s4.38 1.034 6.042 2.766c.201.209.396.428.584.658l.007.011c1.158 1.742.467 2.617.145 3.176Z"></path>
    <path fill="#fff" d="M9.523 20.94c.41.65 1.682.295 2.213 0 1.356-.828 2.861-.732 3.502-.732.641 0 2.086-.096 3.442.733.531.294 1.803.648 2.213 0a2.47 2.47 0 0 0 .292-.635c.054-.19.165-.61.014-.764a10.338 10.338 0 0 0-1.188-1.048c-1.419-1.062-3.059-1.668-4.805-1.668-1.745 0-3.383.606-4.8 1.668a9.701 9.701 0 0 0-1.189 1.048c-.15.154-.04.574.014.764.07.246.182.46.292.635Z"></path>
    <path fill="#fff" d="M9.523 20.94c.41.65 1.682.295 2.213 0 1.356-.828 2.861-.732 3.502-.732.641 0 2.086-.096 3.442.733.531.294 1.803.648 2.213 0a2.47 2.47 0 0 0 .292-.635c.054-.19.165-.61.014-.764a10.338 10.338 0 0 0-1.188-1.048c-1.419-1.062-3.059-1.668-4.805-1.668-1.745 0-3.383.606-4.8 1.668a9.701 9.701 0 0 0-1.189 1.048c-.15.154-.04.574.014.764.07.246.182.46.292.635Z"></path>
    <path fill="#fff" d="M9.523 20.94c.393.622 1.58.321 2.145.036l-.026-.214c-.575.285-1.787.623-2.201.042.027.048.055.093.082.137Z"></path>
    <path fill="#fff" d="M9.44 20.804c.415.581 1.627.243 2.202-.042a8.268 8.268 0 0 1-.026-.23c-.595.288-1.798.613-2.254.119.026.053.051.103.079.153Z"></path>
    <path fill="#fff" d="M9.362 20.65c.456.495 1.66.17 2.254-.117a8.973 8.973 0 0 1-.02-.243c-.616.288-1.807.6-2.305.195.02.058.045.112.07.166Z"></path>
    <path fill="#fff" d="M9.291 20.485c.498.406 1.689.093 2.304-.195a6.492 6.492 0 0 1-.014-.256c-.626.288-1.833.637-2.351.272.017.06.038.12.061.179ZM11.668 20.976a.665.665 0 0 0 .067-.035l-.016-.221-.077.042.026.214Z"></path>
    <path fill="#fff" d="m11.642 20.762.077-.042c-.005-.076-.01-.153-.013-.234-.03.015-.06.03-.09.047.008.079.016.155.026.229Z"></path>
    <path fill="#fff" d="m11.616 20.533.09-.047a5.792 5.792 0 0 1-.01-.25 3.078 3.078 0 0 0-.1.054c.006.083.012.164.02.243Z"></path>
    <path fill="#fff" d="M11.595 20.29c.036-.02.066-.036.102-.053-.003-.084-.003-.173-.003-.261-.04.019-.076.038-.113.058.003.087.008.172.014.256ZM11.735 20.94c1.355-.826 2.857-.733 3.5-.733v-.196c-.667 0-2.17-.09-3.516.709.007.076.011.15.016.22Z"></path>
    <path fill="#fff" d="M11.72 20.72c1.345-.8 2.848-.71 3.515-.71 0-.067-.003-.136-.003-.209-.718 0-2.2-.056-3.527.685.003.08.008.158.013.234h.001Z"></path>
    <path fill="#fff" d="M11.706 20.486c1.326-.74 2.808-.684 3.527-.684v-.226c-.772 0-2.232-.02-3.537.66.003.086.005.17.01.25Z"></path>
    <path fill="#fff" d="M11.697 20.237c1.305-.68 2.764-.661 3.536-.661 0-.078 0-.156-.002-.237-.795 0-2.242-.016-3.539.637 0 .088 0 .177.003.26h.002ZM15.235 20.207h.003v-.196h-.003v.197Z"></path>
    <path fill="#fff" d="M15.235 20.01h.003v-.209h-.005c0 .073.003.142.003.21h-.001Z"></path>
    <path fill="#fff" d="M15.233 19.802h.005v-.226h-.005v.226ZM15.233 19.576h.005v-.237h-.006c.002.08.002.16.002.237ZM15.238 20.207c.641 0 2.085-.095 3.442.733.014-.066.029-.133.043-.206-1.35-.808-2.816-.723-3.485-.723v.197Z"></path>
    <path fill="#fff" d="M15.238 20.01c.669 0 2.135-.084 3.485.724.015-.07.029-.143.042-.219-1.339-.77-2.799-.714-3.527-.714v.21Z"></path>
    <path fill="#fff" d="M15.238 19.801c.728 0 2.188-.056 3.527.714.014-.076.027-.154.039-.233-1.328-.73-2.778-.705-3.566-.706v.225Z"></path>
    <path fill="#fff" d="M15.238 19.576c.788.002 2.238-.024 3.566.706a5.69 5.69 0 0 0 .03-.248c-1.321-.711-2.78-.693-3.596-.695v.237ZM18.68 20.94c.531.295 1.803.648 2.213 0 .028-.043.055-.088.081-.136-.427.602-1.705.224-2.251-.07-.014.073-.029.14-.043.206Z"></path>
    <path fill="#fff" d="M18.723 20.735c.546.293 1.824.671 2.251.069.027-.05.055-.1.079-.153-.464.507-1.71.156-2.288-.136a6.463 6.463 0 0 1-.042.22Z"></path>
    <path fill="#fff" d="M18.765 20.515c.578.292 1.824.643 2.288.136.026-.054.05-.108.072-.166-.5.41-1.71.085-2.321-.203a4.951 4.951 0 0 1-.039.233Z"></path>
    <path fill="#fff" d="M18.804 20.282c.61.288 1.82.612 2.322.203.02-.058.041-.118.06-.18-.52.366-1.727.018-2.352-.271a5.69 5.69 0 0 1-.03.248ZM9.23 20.306c.506.356 1.668.034 2.304-.252-.024-.281-.08-.795.02-1.045-.686.283-1.746.654-2.337.533-.15.155-.04.573.013.764Z"></path>
    <path fill="#fff" d="M11.534 20.054c.016-.006.032-.012.047-.02-.018-.286-.07-.803.035-1.054l-.063.029c-.1.25-.043.763-.02 1.045Z"></path>
    <path fill="#fff" d="M11.58 20.034c1.323-.711 2.828-.695 3.648-.695-.002-.267-.002-.765-.003-.997-.955 0-2.336.05-3.609.638-.105.251-.053.768-.035 1.054Z"></path>
    <path fill="#fff" d="M15.228 19.34h.004c.002-.268.005-.766.005-.998h-.012c.003.232.003.73.003.997Z"></path>
    <path fill="#fff" d="M15.232 19.34h.006a62.48 62.48 0 0 0 0-.998h-.003c0 .232-.003.73-.005.997h.002Z"></path>
    <path fill="#fff" d="M15.238 19.34c.815.002 2.275-.017 3.596.694.039-.276.111-.782.028-1.024-1.285-.614-2.659-.667-3.624-.668.003.232.003.73 0 .997Z"></path>
    <path fill="#fff" d="M18.834 20.034c.625.29 1.832.637 2.351.272.053-.19.165-.61.013-.764-.59.12-1.652-.25-2.336-.532.083.242.01.748-.028 1.023ZM9.217 19.542c.591.121 1.651-.25 2.336-.533.103-.28.208-.555.317-.819-.686.282-1.355.612-2.075.8-.198.175-.391.359-.578.552Z"></path>
    <path fill="#fff" d="M11.553 19.009c.23-.11.466-.202.701-.279.06-.261.124-.514.189-.756a9.053 9.053 0 0 0-.572.216c-.11.264-.215.538-.318.819Z"></path>
    <path fill="#fff" d="M12.254 18.73c1.08-.353 2.174-.388 2.971-.388l-.002-.787c-.94-.002-1.889.115-2.781.42-.065.241-.13.494-.189.755h.001Z"></path>
    <path fill="#fff" d="M15.225 18.342h.011l-.006-.787h-.007c0 .253.003.516.003.787h-.001ZM15.237 18.342h.002c0-.271-.003-.534-.003-.787h-.005l.007.787h-.001Z"></path>
    <path fill="#fff" d="M15.238 18.342c.785.002 1.842.035 2.9.38-.06-.261-.119-.512-.183-.754-.874-.296-1.802-.41-2.72-.413.003.253.003.516.003.787Z"></path>
    <path fill="#fff" d="M18.138 18.722c.242.079.483.174.724.288a19.664 19.664 0 0 0-.316-.818 9.594 9.594 0 0 0-.591-.224c.064.242.124.493.183.754Z"></path>
    <path fill="#fff" d="M18.862 19.01c.684.282 1.746.653 2.336.532-.187-.193-.38-.377-.578-.553-.72-.185-1.39-.517-2.074-.797.108.262.214.536.316.818ZM9.795 18.99c.92-.24 1.754-.711 2.648-1.015.02-.063.042-.125.063-.186-.882.301-1.673.786-2.56 1.071-.05.042-.1.086-.15.13Z"></path>
    <path fill="#fff" d="M9.945 18.86c.888-.285 1.68-.77 2.56-1.071l.063-.18c-.852.293-1.656.74-2.471 1.126-.052.04-.102.082-.152.125Z"></path>
    <path fill="#fff" d="M10.097 18.735c.815-.387 1.619-.833 2.471-1.126.021-.062.042-.12.065-.178-.825.287-1.639.693-2.383 1.181a5.69 5.69 0 0 0-.153.123Z"></path>
    <path fill="#fff" d="M10.25 18.612a10.946 10.946 0 0 1 2.383-1.18c.02-.06.042-.118.064-.175a8.562 8.562 0 0 0-2.293 1.236l-.154.12ZM12.442 17.974c.895-.304 1.847-.42 2.788-.419a12.36 12.36 0 0 1-.007-.186c-.93-.003-1.84.119-2.718.42l-.063.185Z"></path>
    <path fill="#fff" d="M12.505 17.789c.879-.301 1.789-.422 2.719-.42l-.007-.186c-.904 0-1.801.132-2.649.426l-.063.18Z"></path>
    <path fill="#fff" d="M12.568 17.609a8.092 8.092 0 0 1 2.65-.426c-.004-.06-.004-.12-.006-.18-.88 0-1.766.143-2.58.428a4.51 4.51 0 0 0-.064.178Z"></path>
    <path fill="#fff" d="M12.633 17.431a7.857 7.857 0 0 1 2.58-.428 10.5 10.5 0 0 1-.007-.178c-.869 0-1.708.15-2.509.432a4.342 4.342 0 0 0-.064.174ZM15.23 17.555v-.186h-.006l.006.186ZM15.224 17.369h.006c-.003-.063-.003-.125-.003-.186h-.01l.006.186Z"></path>
    <path fill="#fff" d="M15.217 17.183h.011v-.18h-.016c.003.06.003.12.005.18ZM15.212 17.003h.016v-.178h-.022c.002.06.005.118.006.178ZM15.23 17.555c.922.003 1.85.117 2.725.413-.02-.063-.04-.124-.062-.185-.862-.292-1.753-.413-2.663-.414v.186Z"></path>
    <path fill="#fff" d="M15.23 17.369c.91.002 1.801.122 2.663.414l-.062-.18a8.119 8.119 0 0 0-2.603-.42c0 .061 0 .123.003.186h-.001Z"></path>
    <path fill="#fff" d="M15.228 17.183c.888.003 1.77.134 2.603.42l-.063-.178a7.89 7.89 0 0 0-2.54-.422v.18Z"></path>
    <path fill="#fff" d="M15.228 17.003a7.89 7.89 0 0 1 2.54.422l-.066-.173a7.571 7.571 0 0 0-2.474-.427v.178ZM17.955 17.968c.9.305 1.74.783 2.665 1.021l-.15-.129c-.893-.285-1.689-.774-2.577-1.077.021.06.042.122.062.185Z"></path>
    <path fill="#fff" d="M17.893 17.783c.888.302 1.684.792 2.577 1.077-.05-.041-.1-.085-.152-.125-.822-.388-1.629-.838-2.487-1.133l.062.18Z"></path>
    <path fill="#fff" d="M17.83 17.602c.86.295 1.667.745 2.488 1.133a5.355 5.355 0 0 0-.153-.123c-.749-.49-1.57-.899-2.397-1.187.02.06.042.117.063.177Z"></path>
    <path fill="#fff" d="M17.768 17.425c.828.288 1.648.698 2.397 1.187a8.526 8.526 0 0 0-2.464-1.36l.067.173Z"></path>
  </symbol>
  <symbol xmlns="http://www.w3.org/2000/svg" fill="none" viewBox="0 0 178 40" id="icon-logo">
    <path fill="#4865db" d="M.5 20c0-9.428 0-14.142 2.929-17.071S11.072 0 20.5 0s14.142 0 17.071 2.929S40.5 10.572 40.5 20s0 14.142-2.929 17.071S29.928 40 20.5 40 6.358 40 3.429 37.071.5 29.428.5 20"></path>
    <path fill="#fff" d="M24.5 26c.552 0 1.01.452.9.993a5 5 0 0 1-9.8 0c-.11-.54.348-.993.9-.993zm2.102-8.224c-.533.143-.86.701-.59 1.183a4 4 0 1 0 .626-4.754c-.386.395-.214 1.019.264 1.295l.507.293c.772.445.62 1.601-.241 1.832zm-12.204 0c.533.143.86.701.59 1.183a4 4 0 1 1-.626-4.754c.386.395.214 1.019-.264 1.295l-.507.293c-.772.445-.62 1.601.24 1.832z"></path>
    <path fill="#21214d" d="M57.987 27.5V12.386h2.225l5.209 7.844h.082l5.22-7.844h2.214V27.5h-2.933v-5.886l.062-3.712h-.082l-4.194 6.542h-.656l-4.194-6.542h-.082l.061 3.712V27.5zm21.687.164q-1.57 0-2.851-.718a5.5 5.5 0 0 1-2.03-2.01q-.75-1.28-.749-2.953 0-1.67.749-2.932a5.37 5.37 0 0 1 2.03-1.98q1.283-.717 2.85-.717 1.6 0 2.872.718a5.2 5.2 0 0 1 2.01 1.979q.748 1.26.748 2.932t-.748 2.953a5.43 5.43 0 0 1-2.02 2.01q-1.272.718-2.861.718m0-2.45a2.8 2.8 0 0 0 1.486-.4 2.9 2.9 0 0 0 1.036-1.139q.38-.727.38-1.692 0-.943-.37-1.65a2.75 2.75 0 0 0-1.025-1.118q-.646-.41-1.497-.41a2.8 2.8 0 0 0-1.487.4 2.75 2.75 0 0 0-1.036 1.107q-.378.718-.379 1.671 0 .965.38 1.692.378.728 1.025 1.139a2.8 2.8 0 0 0 1.487.4m11.73 2.45q-1.569 0-2.85-.718a5.5 5.5 0 0 1-2.031-2.01q-.748-1.28-.748-2.953 0-1.67.748-2.932a5.37 5.37 0 0 1 2.03-1.98q1.283-.717 2.85-.717 1.6 0 2.872.718a5.2 5.2 0 0 1 2.01 1.979q.748 1.26.748 2.932t-.748 2.953a5.43 5.43 0 0 1-2.02 2.01q-1.272.718-2.861.718m0-2.45a2.8 2.8 0 0 0 1.487-.4 2.9 2.9 0 0 0 1.035-1.139q.38-.727.38-1.692 0-.943-.37-1.65a2.75 2.75 0 0 0-1.025-1.118q-.646-.41-1.497-.41a2.8 2.8 0 0 0-1.487.4q-.655.39-1.035 1.107-.38.718-.38 1.671 0 .965.38 1.692.379.728 1.025 1.139a2.8 2.8 0 0 0 1.487.4m16.837 2.45a6.3 6.3 0 0 1-1.21-.543 2.9 2.9 0 0 1-.759-.646 1.8 1.8 0 0 1-.349-.78l.328.205h-.953l.482-1.281V18.66l-.513-1.128h.277V11.71h2.83v12.192q0 .626.195.902.195.267.687.462l-1.015 2.4Zm-5.896 0a4.7 4.7 0 0 1-3.353-1.425q-.687-.718-1.098-1.774-.399-1.057-.39-2.44-.02-1.846.677-3.118.708-1.271 1.836-1.917a4.7 4.7 0 0 1 2.389-.656q1.405 0 2.482.738 1.076.738 1.681 2.01.615 1.27.626 2.85-.01 1.59-.646 2.902-.636 1.303-1.733 2.071-1.088.76-2.471.76Zm.625-2.4a2.5 2.5 0 0 0 1.395-.42q.615-.42.964-1.159.358-.738.358-1.712 0-1.015-.358-1.733-.36-.728-.964-1.117a2.34 2.34 0 0 0-1.344-.38 2.54 2.54 0 0 0-1.435.39q-.616.399-.964 1.128t-.338 1.712q-.01.974.328 1.713.348.738.953 1.158.615.411 1.405.42m16.837 2.4q-1.877 0-2.83-1.036-.944-1.045-.944-2.676V13.227h2.83v10.561q0 .75.359 1.077.37.318.872.318.235 0 .451-.052.225-.06.39-.154l.922 2.236a3.8 3.8 0 0 1-.953.338 5 5 0 0 1-1.097.113m-5.578-8.86v-2.296h7.218v2.297h-7.218Zm8.233 8.696V16.518h2.759v1.58h.307l-.697.748q.257-.564.759-1.139a4.4 4.4 0 0 1 1.261-.963q.748-.39 1.743-.39.42 0 .749.062.328.06.471.133l-1.138 2.717a1.4 1.4 0 0 0-.349-.102 2.7 2.7 0 0 0-.553-.052 2.4 2.4 0 0 0-.841.164 2.47 2.47 0 0 0-1.415 1.271q-.226.483-.226 1.129V27.5zm10.141.164q-1.108 0-1.948-.44a3.4 3.4 0 0 1-1.313-1.21 3.2 3.2 0 0 1-.471-1.713q0-.984.533-1.733.543-.76 1.61-1.18 1.066-.43 2.635-.43h2.44v1.866h-2.419q-.985 0-1.539.328t-.553 1.026q0 .42.205.717.215.288.595.441.379.154.861.154.441 0 1.025-.195.585-.195 1.015-.625.441-.441.441-1.149v-1.127l-.184-.554v-1.415q0-.36-.103-.667a1.4 1.4 0 0 0-.338-.543 1.4 1.4 0 0 0-.605-.359 2.7 2.7 0 0 0-.902-.133 5.7 5.7 0 0 0-1.098.112 7 7 0 0 0-1.097.308 4.4 4.4 0 0 0-.882.42l-.923-2.194a6 6 0 0 1 1.098-.471 9.5 9.5 0 0 1 1.517-.38 10 10 0 0 1 1.774-.154q1.508 0 2.369.41.86.41 1.261 1.046.41.626.523 1.313t.113 1.25v3.426q0 .625.123.943.133.308.513.43l.246.083-1.026 2.4-.328-.124q-.902-.339-1.312-.79-.41-.46-.472-.912l.533.349h-.902l.615-.288q-.348.697-1.354 1.23-.994.534-2.276.534m12.479-.041a5.9 5.9 0 0 1-2.266-.43 5.9 5.9 0 0 1-1.846-1.2 5.7 5.7 0 0 1-1.241-1.795 5.6 5.6 0 0 1-.451-2.245q0-1.2.441-2.215a5.5 5.5 0 0 1 1.241-1.784 5.6 5.6 0 0 1 1.815-1.19 5.8 5.8 0 0 1 2.204-.42 6.2 6.2 0 0 1 1.836.277 5.4 5.4 0 0 1 1.579.748l-1.046 2.297a3.4 3.4 0 0 0-1.446-.748 3.5 3.5 0 0 0-.851-.103q-.902 0-1.589.42t-1.067 1.139a3.3 3.3 0 0 0-.379 1.589q0 .893.39 1.62.389.718 1.076 1.148.687.42 1.569.42a3.8 3.8 0 0 0 1.364-.245q.646-.256.974-.575l1.025 2.349q-.594.39-1.466.666a6 6 0 0 1-1.866.277m4.019-.123V11.709h2.83v9.177h.882l-.964.503 4.133-4.881h3.404l-5.342 6.05v-1.61l5.598 6.552h-3.394l-4.419-5.301.984.533h-.882V27.5zm15.145.164q-1.732 0-3.015-.718a5.14 5.14 0 0 1-1.989-2q-.697-1.281-.697-2.922 0-1.733.718-2.994.728-1.271 1.927-1.969a5.2 5.2 0 0 1 2.646-.697q1.364 0 2.492.636a4.8 4.8 0 0 1 1.825 1.774q.687 1.139.687 2.697 0 .358-.041.687-.042.328-.123.769h-8.019V21.04h5.578q0-.708-.307-1.24a2.16 2.16 0 0 0-.851-.831q-.534-.308-1.241-.308-.861 0-1.497.42a2.73 2.73 0 0 0-.974 1.149q-.339.738-.339 1.712 0 1.015.38 1.785a2.9 2.9 0 0 0 1.087 1.21q.707.43 1.671.43.543 0 1.056-.123.513-.133.954-.349t.759-.471l.922 2.235q-.656.452-1.599.728a7 7 0 0 1-2.01.277m5.568-.164V16.518h2.758v1.58h.308l-.698.748q.256-.564.759-1.139a4.4 4.4 0 0 1 1.261-.963q.749-.39 1.744-.39a4 4 0 0 1 .748.062q.328.06.472.133l-1.138 2.717a1.4 1.4 0 0 0-.349-.102 2.7 2.7 0 0 0-.554-.052q-.4 0-.841.164a2.5 2.5 0 0 0-.81.472 2.5 2.5 0 0 0-.605.8q-.225.482-.225 1.128V27.5z"></path>
  </symbol>
  <symbol id="icon-logo-mark" viewBox="0 0 40 40">
    <path fill="#4865DB" d="M.5 20c0-9.428 0-14.142 2.929-17.071C6.358 0 11.072 0 20.5 0s14.142 0 17.071 2.929C40.5 5.858 40.5 10.572 40.5 20s0 14.142-2.929 17.071C34.642 40 29.928 40 20.5 40S6.358 40 3.429 37.071C.5 34.142.5 29.428.5 20Z"/>
    <path fill="#fff" d="M24.5 26c.552 0 1.01.452.9.993a5 5 0 0 1-9.8 0c-.11-.54.348-.993.9-.993h8ZM26.602 17.776c-.533.143-.86.701-.59 1.183a4 4 0 1 0 .626-4.754c-.386.395-.214 1.019.264 1.295l.507.293c.772.445.62 1.601-.241 1.832l-.566.151ZM14.398 17.776c.533.143.86.701.59 1.183a4 4 0 1 1-.626-4.754c.386.395.214 1.019-.264 1.295l-.507.293c-.772.445-.62 1.601.24 1.832l.567.151Z"/>
  </symbol>
  <symbol xmlns="http://www.w3.org/2000/svg" id="icon-close" viewBox="0 0 24 24" fill="none" stroke="currentColor" stroke-width="2" stroke-linecap="round" stroke-linejoin="round">
    <path d="M18 6L6 18M6 6l12 12"/>
  </symbol>
</svg>





