<svg xmlns="http://www.w3.org/2000/svg" width="178" height="40" fill="none" viewBox="0 0 178 40"><path fill="#4865db" d="M.5 20c0-9.428 0-14.142 2.929-17.071S11.072 0 20.5 0s14.142 0 17.071 2.929S40.5 10.572 40.5 20s0 14.142-2.929 17.071S29.928 40 20.5 40 6.358 40 3.429 37.071.5 29.428.5 20"/><path fill="#fff" d="M24.5 26c.552 0 1.01.452.9.993a5 5 0 0 1-9.8 0c-.11-.54.348-.993.9-.993zm2.102-8.224c-.533.143-.86.701-.59 1.183a4 4 0 1 0 .626-4.754c-.386.395-.214 1.019.264 1.295l.507.293c.772.445.62 1.601-.241 1.832zm-12.204 0c.533.143.86.701.59 1.183a4 4 0 1 1-.626-4.754c.386.395.214 1.019-.264 1.295l-.507.293c-.772.445-.62 1.601.24 1.832z"/><path fill="#21214d" d="M57.987 27.5V12.386h2.225l5.209 7.844h.082l5.22-7.844h2.214V27.5h-2.933v-5.886l.062-3.712h-.082l-4.194 6.542h-.656l-4.194-6.542h-.082l.061 3.712V27.5zm21.687.164q-1.57 0-2.851-.718a5.5 5.5 0 0 1-2.03-2.01q-.75-1.28-.749-2.953 0-1.67.749-2.932a5.37 5.37 0 0 1 2.03-1.98q1.283-.717 2.85-.717 1.6 0 2.872.718a5.2 5.2 0 0 1 2.01 1.979q.748 1.26.748 2.932t-.748 2.953a5.43 5.43 0 0 1-2.02 2.01q-1.272.718-2.861.718m0-2.45a2.8 2.8 0 0 0 1.486-.4 2.9 2.9 0 0 0 1.036-1.139q.38-.727.38-1.692 0-.943-.37-1.65a2.75 2.75 0 0 0-1.025-1.118q-.646-.41-1.497-.41a2.8 2.8 0 0 0-1.487.4 2.75 2.75 0 0 0-1.036 1.107q-.378.718-.379 1.671 0 .965.38 1.692.378.728 1.025 1.139a2.8 2.8 0 0 0 1.487.4m11.73 2.45q-1.569 0-2.85-.718a5.5 5.5 0 0 1-2.031-2.01q-.748-1.28-.748-2.953 0-1.67.748-2.932a5.37 5.37 0 0 1 2.03-1.98q1.283-.717 2.85-.717 1.6 0 2.872.718a5.2 5.2 0 0 1 2.01 1.979q.748 1.26.748 2.932t-.748 2.953a5.43 5.43 0 0 1-2.02 2.01q-1.272.718-2.861.718m0-2.45a2.8 2.8 0 0 0 1.487-.4 2.9 2.9 0 0 0 1.035-1.139q.38-.727.38-1.692 0-.943-.37-1.65a2.75 2.75 0 0 0-1.025-1.118q-.646-.41-1.497-.41a2.8 2.8 0 0 0-1.487.4q-.655.39-1.035 1.107-.38.718-.38 1.671 0 .965.38 1.692.379.728 1.025 1.139a2.8 2.8 0 0 0 1.487.4m16.837 2.45a6.3 6.3 0 0 1-1.21-.543 2.9 2.9 0 0 1-.759-.646 1.8 1.8 0 0 1-.349-.78l.328.205h-.953l.482-1.281V18.66l-.513-1.128h.277V11.71h2.83v12.192q0 .626.195.902.195.267.687.462l-1.015 2.4Zm-5.896 0a4.7 4.7 0 0 1-3.353-1.425q-.687-.718-1.098-1.774-.399-1.057-.39-2.44-.02-1.846.677-3.118.708-1.271 1.836-1.917a4.7 4.7 0 0 1 2.389-.656q1.405 0 2.482.738 1.076.738 1.681 2.01.615 1.27.626 2.85-.01 1.59-.646 2.902-.636 1.303-1.733 2.071-1.088.76-2.471.76Zm.625-2.4a2.5 2.5 0 0 0 1.395-.42q.615-.42.964-1.159.358-.738.358-1.712 0-1.015-.358-1.733-.36-.728-.964-1.117a2.34 2.34 0 0 0-1.344-.38 2.54 2.54 0 0 0-1.435.39q-.616.399-.964 1.128t-.338 1.712q-.01.974.328 1.713.348.738.953 1.158.615.411 1.405.42m16.837 2.4q-1.877 0-2.83-1.036-.944-1.045-.944-2.676V13.227h2.83v10.561q0 .75.359 1.077.37.318.872.318.235 0 .451-.052.225-.06.39-.154l.922 2.236a3.8 3.8 0 0 1-.953.338 5 5 0 0 1-1.097.113m-5.578-8.86v-2.296h7.218v2.297h-7.218Zm8.233 8.696V16.518h2.759v1.58h.307l-.697.748q.257-.564.759-1.139a4.4 4.4 0 0 1 1.261-.963q.748-.39 1.743-.39.42 0 .749.062.328.06.471.133l-1.138 2.717a1.4 1.4 0 0 0-.349-.102 2.7 2.7 0 0 0-.553-.052 2.4 2.4 0 0 0-.841.164 2.47 2.47 0 0 0-1.415 1.271q-.226.483-.226 1.129V27.5zm10.141.164q-1.108 0-1.948-.44a3.4 3.4 0 0 1-1.313-1.21 3.2 3.2 0 0 1-.471-1.713q0-.984.533-1.733.543-.76 1.61-1.18 1.066-.43 2.635-.43h2.44v1.866h-2.419q-.985 0-1.539.328t-.553 1.026q0 .42.205.717.215.288.595.441.379.154.861.154.441 0 1.025-.195.585-.195 1.015-.625.441-.441.441-1.149v-1.127l-.184-.554v-1.415q0-.36-.103-.667a1.4 1.4 0 0 0-.338-.543 1.4 1.4 0 0 0-.605-.359 2.7 2.7 0 0 0-.902-.133 5.7 5.7 0 0 0-1.098.112 7 7 0 0 0-1.097.308 4.4 4.4 0 0 0-.882.42l-.923-2.194a6 6 0 0 1 1.098-.471 9.5 9.5 0 0 1 1.517-.38 10 10 0 0 1 1.774-.154q1.508 0 2.369.41.86.41 1.261 1.046.41.626.523 1.313t.113 1.25v3.426q0 .625.123.943.133.308.513.43l.246.083-1.026 2.4-.328-.124q-.902-.339-1.312-.79-.41-.46-.472-.912l.533.349h-.902l.615-.288q-.348.697-1.354 1.23-.994.534-2.276.534m12.479-.041a5.9 5.9 0 0 1-2.266-.43 5.9 5.9 0 0 1-1.846-1.2 5.7 5.7 0 0 1-1.241-1.795 5.6 5.6 0 0 1-.451-2.245q0-1.2.441-2.215a5.5 5.5 0 0 1 1.241-1.784 5.6 5.6 0 0 1 1.815-1.19 5.8 5.8 0 0 1 2.204-.42 6.2 6.2 0 0 1 1.836.277 5.4 5.4 0 0 1 1.579.748l-1.046 2.297a3.4 3.4 0 0 0-1.446-.748 3.5 3.5 0 0 0-.851-.103q-.902 0-1.589.42t-1.067 1.139a3.3 3.3 0 0 0-.379 1.589q0 .893.39 1.62.389.718 1.076 1.148.687.42 1.569.42a3.8 3.8 0 0 0 1.364-.245q.646-.256.974-.575l1.025 2.349q-.594.39-1.466.666a6 6 0 0 1-1.866.277m4.019-.123V11.709h2.83v9.177h.882l-.964.503 4.133-4.881h3.404l-5.342 6.05v-1.61l5.598 6.552h-3.394l-4.419-5.301.984.533h-.882V27.5zm15.145.164q-1.732 0-3.015-.718a5.14 5.14 0 0 1-1.989-2q-.697-1.281-.697-2.922 0-1.733.718-2.994.728-1.271 1.927-1.969a5.2 5.2 0 0 1 2.646-.697q1.364 0 2.492.636a4.8 4.8 0 0 1 1.825 1.774q.687 1.139.687 2.697 0 .358-.041.687-.042.328-.123.769h-8.019V21.04h5.578q0-.708-.307-1.24a2.16 2.16 0 0 0-.851-.831q-.534-.308-1.241-.308-.861 0-1.497.42a2.73 2.73 0 0 0-.974 1.149q-.339.738-.339 1.712 0 1.015.38 1.785a2.9 2.9 0 0 0 1.087 1.21q.707.43 1.671.43.543 0 1.056-.123.513-.133.954-.349t.759-.471l.922 2.235q-.656.452-1.599.728a7 7 0 0 1-2.01.277m5.568-.164V16.518h2.758v1.58h.308l-.698.748q.256-.564.759-1.139a4.4 4.4 0 0 1 1.261-.963q.749-.39 1.744-.39a4 4 0 0 1 .748.062q.328.06.472.133l-1.138 2.717a1.4 1.4 0 0 0-.349-.102 2.7 2.7 0 0 0-.554-.052q-.4 0-.841.164a2.5 2.5 0 0 0-.81.472 2.5 2.5 0 0 0-.605.8q-.225.482-.225 1.128V27.5z"/></svg>